<?xml version="1.0" encoding="utf-8"?>
<!-- Generator: Adobe Illustrator 21.1.0, SVG Export Plug-In . SVG Version: 6.00 Build 0)  -->
<svg version="1.1" id="Layer_1" xmlns="http://www.w3.org/2000/svg" xmlns:xlink="http://www.w3.org/1999/xlink" x="0px" y="0px"
	 viewBox="0 0 270.5 111.7" style="enable-background:new 0 0 270.5 111.7;" xml:space="preserve">
<style type="text/css">
	.st0{fill:url(#SVGID_1_);}
	.st1{fill:url(#SVGID_2_);}
	.st2{opacity:0.15;}
	.st3{fill:#003366;}
	.st4{fill:#A02322;}
	.st5{fill:url(#SVGID_3_);}
	.st6{fill:#FFFFFF;}
	.st7{fill:#162667;}
	.st8{fill:#012169;}
</style>
<g>
	
		<linearGradient id="SVGID_1_" gradientUnits="userSpaceOnUse" x1="107.4505" y1="87.2372" x2="174.2779" y2="56.075" gradientTransform="matrix(1 0 0 -1 0 114)">
		<stop  offset="0" style="stop-color:#AE1D1F"/>
		<stop  offset="0.1458" style="stop-color:#BD431F"/>
		<stop  offset="0.3487" style="stop-color:#D0731F"/>
		<stop  offset="0.45" style="stop-color:#D7851F"/>
		<stop  offset="0.5476" style="stop-color:#DD9823"/>
		<stop  offset="0.8162" style="stop-color:#EEC82F"/>
		<stop  offset="0.95" style="stop-color:#F4DA33"/>
	</linearGradient>
	<path class="st0" d="M149.4,43.4c-8.9-2.7-19-8.6-28.7-22.4l0,0c-2.1-2.9-3.3-5-3.3-5c-0.5-0.9-1.3-2.7-2.7-4
		c-1.6-1.3-2.5-0.2-3.8,0.7c-1.3,0.9-2.4-0.1-3.2-0.9c-1.1-1.1-2.1-1.2-2.1-0.3c0,1.2,1,2.1,0.1,3.5c-0.3,0.5-0.8,0.8-1.6,0.8
		c-2.5,0-4.5-4-6.2-5.9C97.4,9.6,97,9.5,96.9,10c-0.2,0.7,0,1.6-0.4,1.6c-0.6,0.1-1.7-2.1-2.5-2.8c-0.5-0.5-0.9-0.7-1.6-1
		c-2.1-0.8-2.3-1.2-3.9-3C88,4.3,86,2.3,85.5,2.3c-0.3,0-0.4,0.4-0.4,0.6c0,0.2,0,0.5-0.3,0.5s-0.7-0.4-1.5-0.9
		c-0.7-0.5-1.6-1.1-2-1.3c-0.5-0.2-0.6,0.2-0.8,0.8C80.4,2.8,81,2.8,81,2.8c0.6,0,1,0.6,1.3,0.9s0.6,1,1.9,1.3
		c1.3,0.3,1.6,1,1.9,1.6c1.6,3.6,2.7,6,2.7,7c0,0.7-0.8,0.8-1.9-1.7c-0.6-1.6-1.4-2.7-1.7-3.3c-0.3-0.5-0.5-0.9-1.1-1.2
		c-0.7-0.5-1.7-0.8-2.5-0.9c-0.8-0.1-0.9,0.3-0.9,0.6c0.1,0.4,0.5,0.5,0.9,1c2.4,2.1,3.6,3.9,4.7,6.7c0.7,2,2.2,5.3,3.1,7
		C97,36.9,109.2,53,137.4,53c11.8,0,22.2-3.1,30.9-7.1l2.9-1.5l0,0C169.3,45.2,158.4,46.1,149.4,43.4z"/>
	
		<linearGradient id="SVGID_2_" gradientUnits="userSpaceOnUse" x1="123.3574" y1="78.3134" x2="236.5996" y2="98.281" gradientTransform="matrix(1 0 0 -1 0 114)">
		<stop  offset="0" style="stop-color:#DA9033"/>
		<stop  offset="2.336113e-02" style="stop-color:#DC9A34"/>
		<stop  offset="0.1225" style="stop-color:#E5C238"/>
		<stop  offset="0.2015" style="stop-color:#EBDA3B"/>
		<stop  offset="0.25" style="stop-color:#EDE33C"/>
		<stop  offset="0.6" style="stop-color:#8AB53C"/>
		<stop  offset="0.6406" style="stop-color:#84B24F"/>
		<stop  offset="0.8145" style="stop-color:#6DA69C"/>
		<stop  offset="0.9385" style="stop-color:#5E9FCC"/>
		<stop  offset="1" style="stop-color:#589CDE"/>
	</linearGradient>
	<path class="st1" d="M149.7,42.2C177,49.4,186.5,30,193,22.4c0.5-0.7,1.2-1.3,1.6-1.9c0.5-0.5,0.9-1,1.5-1.5
		c-38.7,16.8-72.8,3.1-75.3,1.9l0,0l0,0C121.1,21.5,133.6,37.9,149.7,42.2z"/>
	<g class="st2">
		<g>
			<path class="st3" d="M193,22.4L193,22.4c-0.9,0.7-2.6,1.9-4.1,3.1c0,0-1.1,0.9-2.2,1.6c-3,2-4.8,0.7-10.7,1.1
				c-3.4,0.2-6.7,0.8-9.5,1.6c-2.4,0.5-5.3,1.2-5.3,2.2c0,0.5,1.3,0.5,3.3,0.9c0.8,0.1,1.5,0.3,1.5,0.6c0,0.4-0.5,0.7-1.3,1
				c-2.5,0.9-5.8,1.6-8.6,2c3.4,0.3,7,0.4,10.9,0.1c0.6,0,1.1,0.2,1.5,0.5c0.5,0.4,0.5,1,0.2,1.6c-0.6,1.1-2.6,1.6-4.6,2.2
				c-1.9,0.7-4.2,1.6-5.4,2.4C176.5,44.3,186.5,29.9,193,22.4z"/>
		</g>
	</g>
	<path class="st4" d="M120.7,20.9c-2.1-2.9-3.3-5-3.3-5c-0.3-0.5-0.5-1-0.9-1.7c-0.5-0.6-0.9-1.6-1.9-1.3c-1.6,0.5-2.1,8,0.5,15.6
		c0,0,2,6,7.7,10c0,0,0.2,0.1,0.2,0v-0.2c0,0,0-0.1-0.1-0.2c-0.4-0.4-3.6-2.9-4.8-7.4c-0.7-2.7-0.5-3.8-0.1-4.2
		c0.3-0.3,0.5-0.2,0.7-0.1c0,0,0.5,0.3,1.8,1.6c4.9,4.4,10.9,10.3,18.5,11.4C132.9,35.6,126.8,29.6,120.7,20.9z"/>
	<path class="st4" d="M160.9,48.3c-7.9,2.8-15.8,4.2-23.7,4.2c-22.2,0-33.9-10.3-41.4-21.8c0,0,4.5,5.9,9.3,8.8
		c3.8,2.3,7.4,2.2,9.7-0.1C129.8,52.9,144.8,52.8,160.9,48.3z"/>
	
		<linearGradient id="SVGID_3_" gradientUnits="userSpaceOnUse" x1="205.6693" y1="94.7014" x2="251.7903" y2="56.0013" gradientTransform="matrix(1 0 0 -1 0 114)">
		<stop  offset="0" style="stop-color:#81B90A"/>
		<stop  offset="0.1414" style="stop-color:#5EB547"/>
		<stop  offset="0.2829" style="stop-color:#3FB17D"/>
		<stop  offset="0.4148" style="stop-color:#27AEA7"/>
		<stop  offset="0.5332" style="stop-color:#15ACC6"/>
		<stop  offset="0.634" style="stop-color:#0BAAD8"/>
		<stop  offset="0.7052" style="stop-color:#07AADF"/>
		<stop  offset="0.7473" style="stop-color:#08A4DA"/>
		<stop  offset="0.8026" style="stop-color:#0A94CB"/>
		<stop  offset="0.865" style="stop-color:#0D79B2"/>
		<stop  offset="0.9325" style="stop-color:#115390"/>
		<stop  offset="1" style="stop-color:#162667"/>
	</linearGradient>
	<path class="st5" d="M248.7,13.9c-11.2-5.3-24.7-8.2-36.2-4.4c-15.5,5.2-21.5,21.3-33.1,30.2c7-4.3,11.5-7.8,13.2-9.1
		c4.8-3.8,22.9-15.6,35-14.6c7.3,0.5,11.4,4.9,11.4,4.9c0.1,0.1,0.1,0.2,0.2,0.2c0,0,0.1,0,0.1,0.1c1.5,1.8,2.5,3.8,4.9,5.8
		c8.1,6.4,13,0.8,17.8,6.6c3.8,4.7,4.4,7.3,4.5,10.9c0.1,3.5-1.1,10.2-3,12.4h1.2l0.5-2.7c4.3-7.9,3.6-15.9,1.6-21.5
		C263.4,22.9,249.3,14.2,248.7,13.9z"/>
	<g>
		<path class="st6" d="M247.4,12.8c-14.7-9-27.4-6.8-35.9-3.9c-7.1,2.4-12.1,6.8-15.5,10.2c-0.5,0.5-1,1-1.5,1.5
			c-0.5,0.5-1.1,1.2-1.6,1.9c-6.5,7.6-16.5,21.9-34.4,21l0,0c-2.7-0.2-5.8-0.6-8.9-1.6C133.8,37,121.1,21.6,120.8,21l0,0l0,0
			c9.6,13.8,19.4,20.6,28.3,23.3c4.6,1.5,8.7,2,12.4,2c3.7,0,7-0.6,9.8-1.7c12.3-4.5,18.6-16.9,27.9-25.9c3.7-3.6,7.9-6.6,13-8.4
			c11.2-3.9,23.9-2,34.7,3.3c0,0,2.7,1.2,3.5,1.6C250.1,14.7,249.1,13.8,247.4,12.8z"/>
	</g>
</g>
<g>
	<g>
		<path class="st7" d="M253.9,61.6c0.7-0.7,0.6-3.8,0.6-3.8s-1.3-2-2.5-1.6c-1.3,0.5-1.3,2.7-1,4.5
			C251.3,62.5,253.2,62.3,253.9,61.6z"/>
	</g>
	<path class="st7" d="M263.5,59.2c5.3-8,5-16.7,5-16.7c0.2-9.2-3.7-17.5-13.9-24.6c8.6,7,14.3,18.9,11.7,29.5
		c-0.2,0.6-0.7,3.1-1,3.7c-0.7,3.1-1.5,5.3-3.6,8.9l-2.3,1.1c-1.4,1.6-2.7,2-3.5,2.3c-1.1,0.5-3.8,1.3-5.9,1.8
		c-1.6,0.5-4.6,0.1-5.5-0.8c-1-0.8-0.9-1.6-0.5-2.5c0.3-0.8-0.5-0.8-0.5-0.8c-1.4,0.1-1.2,1.2-1.2,1.2c0,0.3,0.5,2.1,2.4,3.8
		c1.9,1.6,3.9,1.6,4.2,1.6c0.6,0,1.5,0.1,2.5,0.9c1,0.7,1,1.6,0.9,2.8c-0.1,2.3-1,1.9-3.1,4.9c-0.7,1-2.3,3.8-2.7,4.4
		c-0.4,0.6-0.8,0.9-1.3,1.2c-0.4,0.2-0.5,0.3-1.2,1.6c-0.5,0.8-0.5,1.6,0.4,1.6s1.7-1.3,1.8-1.6c0.2-0.4,0.5-0.8,1-1.6
		c0.4-0.5,0.7-0.9,1.1-1.4c0.3-0.4,0.6-0.8,1-1.1c0.5-0.4,1.1-0.8,1.6-1.2c0.7-0.5,1-0.8,1.3-1.1c0.3-0.3,1.2-0.9,1.8-0.9
		s1,0.5,1,2.1c0,1.6-0.5,3.6-1,4.9c-0.5,1.3-1.1,2.3-2.4,4.6c-0.5,0.9-1,1.6-1.5,2.2c-0.9,1.1-1.4,1.5-1.9,2.2
		c-0.1,0.2-0.2,0.4-0.3,0.5c-0.4,0.8-0.1,1.6,0.7,1.6c0.5,0,1.2-0.2,1.7-0.7c0.4-0.3,0.6-0.7,1.1-2.1c0.1-0.2,0.4-0.9,0.5-1.1
		c1.2-2.6,2.5-3.8,4-6.1c0.7-1.2,3.3-4.9,2.9-10.8c-0.1-1.6-0.4-2.2-0.3-4C258.9,65.1,260.6,63.1,263.5,59.2z"/>
</g>
<g>
	<path class="st8" d="M1.4,55.5c1.1,1.3,1.7,2.9,1.7,4.7v37.6c0,0.7,0.5,1.2,1.2,1.2h15.5c14.8,0,18.4-6,18.4-12.5
		c0-5.2-3.7-9.4-9.8-10.7c4.6-1.4,7.9-5.2,7.9-10.4c0-6.3-4.1-10-16-10H1.4z M14.6,61.2h2.1c4.8,0,8.5,0.1,8.5,6.3
		c0,6.1-3.6,6.3-8.5,6.3h-2.1V61.2z M16.7,93.4h-2.1V79.2h2.1c6.9,0,9.7,1.6,9.7,7.1C26.4,91.8,23.5,93.4,16.7,93.4z"/>
	<path class="st8" d="M193.6,67.2c-9.7,0-16.6,6.4-16.6,16.3c0,9.8,7.1,16.4,17.9,16.4c3.6,0,9.4-1.1,12.5-3.2l-0.6-1.6
		c-0.7-1.9-1.9-2.5-3.1-2.5c-1.8,0-3.7,1.5-6.9,1.5c-7.2,0-9.3-4.5-9.3-8.2h21c0.7,0,1.2-0.5,1.2-1.2
		C209.8,73.3,203.6,67.2,193.6,67.2z M187.7,80.1c0-5.9,2.9-7.7,6-7.7c2.8,0,5.7,2.1,5.5,7.7H187.7z"/>
	<path class="st8" d="M64.4,74.5v-6.9c-1.4-0.3-2.6-0.4-3.2-0.4c-3.8,0-6.5,2-8.4,4.8v-0.7c0-1.9-1.5-3.4-3.4-3.4h-8.8
		c1.1,1.3,1.7,2.9,1.7,4.7v25.3c0,0.7,0.5,1.2,1.2,1.2h9.2V81.5c0.4-6.9,5.7-7.4,10.4-6.2C64.2,75.6,64.4,75.1,64.4,74.5z"/>
	<path class="st8" d="M235.9,74.5v-6.9c-1.4-0.3-2.6-0.4-3.2-0.4c-3.8,0-6.5,2-8.4,4.8v-0.7c0-1.9-1.5-3.4-3.4-3.4h-8.8
		c1.1,1.3,1.7,2.9,1.7,4.7v25.3c0,0.7,0.5,1.2,1.2,1.2h9.2V81.5c0.4-6.9,5.7-7.4,10.4-6.2C235.6,75.6,235.9,75.1,235.9,74.5z"/>
	<g>
		<path class="st8" d="M97.4,67.9h-7v21.1c0,3.6-2.4,5.4-5.4,5.4c-3,0-5.4-1.8-5.4-5.4V71.3c0-1.9-1.5-3.4-3.4-3.4h-8.8
			c1.1,1.3,1.7,2.9,1.7,4.7v15.8c0,8.4,5.8,11.4,14.8,11.4c7,0,9.4-2,12.9-2c1.6,0,2.4,0.1,3.9,0.6V71.3
			C100.7,69.4,99.2,67.9,97.4,67.9z"/>
	</g>
	<g>
		<path class="st8" d="M169.8,67.9h-7v21.1c0,3.6-2.4,5.4-5.4,5.4c-3,0-5.4-1.8-5.4-5.4V71.3c0-1.9-1.5-3.4-3.4-3.4h-8.8
			c1.1,1.3,1.7,2.9,1.7,4.7v15.8c0,8.4,5.8,11.4,14.8,11.4c7,0,9.4-2,12.9-2c1.6,0,2.4,0.1,3.9,0.6V71.3
			C173.2,69.4,171.6,67.9,169.8,67.9z"/>
	</g>
	<path class="st8" d="M132.4,69.1c-3.5,0-5.9-2-12.9-2c-9.1,0-14.8,7.3-14.8,16.4c0,10.1,7.3,15.5,14.2,15.5c1.2,0,4.3,0,7-1.6v1.4
		c0,6.7-4.2,6.2-7.3,6.2c-3.1,0-5.9-1.5-7.6-1.5c-1.2,0-2.4,0.5-3.1,2.5l-0.6,1.6c3.1,2.1,8.9,3.2,12.5,3.2
		c7.5,0,16.4-2.5,16.4-10.4V88.9V68.5C134.8,69,134,69.1,132.4,69.1z M121.3,93.6c-4.8,0-6.6-3.9-6.6-10.4c0-7.5,1.5-11,5.8-11
		c3,0,5.4,1.8,5.4,5.4v13.8C124.5,92.8,122.8,93.6,121.3,93.6z"/>
</g>
</svg>
