<?xml version="1.0" encoding="UTF-8" standalone="no"?><svg version="1.2" xmlns="http://www.w3.org/2000/svg" viewBox="0 0 2403 507" width="2403" height="507">
	<title>LOGO TITANCOLOR 2019 PERFIL_page-0001-svg</title>
	<style>
		.s0 { fill: #fefefe } 
		.s1 { fill: #f3ae58 } 
		.s2 { fill: #fa991b } 
		.s3 { fill: #f1ea0e } 
		.s4 { fill: #f6f285 } 
		.s5 { fill: #f35e22 } 
		.s6 { fill: #ffe7be } 
		.s7 { fill: #f9f695 } 
		.s8 { fill: #f2b05d } 
		.s9 { fill: #c2d92c } 
		.s10 { fill: #f0b76d } 
		.s11 { fill: #e98358 } 
		.s12 { fill: #f6a4a1 } 
		.s13 { fill: #f5a4a2 } 
		.s14 { fill: #f6a5a2 } 
		.s15 { fill: #ce2d26 } 
		.s16 { fill: #cf332a } 
		.s17 { fill: #d03028 } 
		.s18 { fill: #231f1e } 
		.s19 { fill: #d8271f } 
		.s20 { fill: #db251d } 
		.s21 { fill: #e0241b } 
		.s22 { fill: #df241b } 
		.s23 { fill: #59bc45 } 
		.s24 { fill: #fcfcfc } 
		.s25 { fill: #77c267 } 
		.s26 { fill: #fdfdfd } 
		.s27 { fill: #d46762 } 
		.s28 { fill: #d4483c } 
		.s29 { fill: #b3e0a9 } 
		.s30 { fill: #1d94d0 } 
		.s31 { fill: #d15147 } 
		.s32 { fill: #d4483e } 
		.s33 { fill: #fdfafa } 
		.s34 { fill: #d55146 } 
		.s35 { fill: #d7564c } 
		.s36 { fill: #783c98 } 
		.s37 { fill: #d3473d } 
		.s38 { fill: #ffc9c6 } 
		.s39 { fill: #ad1f53 } 
		.s40 { fill: #d0473e } 
		.s41 { fill: #d65f56 } 
		.s42 { fill: #fdb4b0 } 
		.s43 { fill: #e82017 } 
		.s44 { fill: #d22f25 } 
		.s45 { fill: #d12b23 } 
		.s46 { fill: #d3352b } 
		.s47 { fill: #d02a22 } 
		.s48 { fill: #f3a09c } 
		.s49 { fill: #f3a09d } 
		.s50 { fill: #f4a19d } 
	</style>
	<g id="Layer">
		<path id="Layer" fill-rule="evenodd" class="s0" d="m-3756.5-375.5q1754 0 3508 0 0 1240.5 0 2481-1754 0-3508 0 0-1240.5 0-2481z"/>
	</g>
	<g id="Layer">
		<path id="Layer" fill-rule="evenodd" class="s1" d="m274.5 15.5q-21 0.5-42 1 12.9-2.1 26.5-2 8 0 15.5 1z"/>
	</g>
	<g id="Layer">
		<path id="Layer" fill-rule="evenodd" class="s2" d="m274.5 15.5q10.1 0.7 20 2 1.5 6 0 12-2.5 9.2-3 19-3.6 9-3 19-3.3 24-6 48-2 0-4 0-7.9-2-17-2-8.5 0.3-17 0.5-1.9 0.3-3 1.5-6 0.8-12 1-9-48.5-18-97 10.3-2.6 21-3 21-0.5 42-1z"/>
	</g>
	<g id="Layer">
		<path id="Layer" fill-rule="evenodd" class="s3" d="m192.5 37.5q0.8 7 4 13 10.8 34.2 22 68.5-24.5 8.8-45.5 24.5-30.2-38.7-59.5-78.5 2.5-4.5 7-7 25.4-18.2 55-28.5 4 0.1 7-2 2.4-2.6 6-1.5 2.6 5.5 4 11.5z"/>
	</g>
	<g id="Layer">
		<path id="Layer" fill-rule="evenodd" class="s4" d="m182.5 27.5q-3 2.1-7 2 3-2.1 7-2z"/>
	</g>
	<g id="Layer">
		<path id="Layer" fill-rule="evenodd" class="s5" d="m310.5 123.5q-6.2-4.2-14-5-1.8-0.7-2-3 11.8-46 23.5-92 0.8-0.8 2-1 41.2 10.5 75.5 35-26.7 40.5-54 80.5-6.6-1.3-12-6-9.5-4.2-19-8.5z"/>
	</g>
	<g id="Layer">
		<path id="Layer" fill-rule="evenodd" class="s6" d="m294.5 29.5q-0.2 10.9-3 21 0-1 0-2 0.5-9.8 3-19z"/>
	</g>
	<g id="Layer">
		<path id="Layer" fill-rule="evenodd" class="s7" d="m192.5 37.5q3.2 6 4 13-3.2-6-4-13z"/>
	</g>
	<g id="Layer">
		<path id="Layer" fill-rule="evenodd" class="s8" d="m291.5 48.5q0 1 0 2-1.1 8.7-3 17-0.6-10 3-19z"/>
	</g>
	<g id="Layer">
		<path id="Layer" fill-rule="evenodd" class="s9" d="m93.5 79.5q1.8-0.3 3 1 6.6 7.3 13.5 14 26.6 28.3 52.5 57-17.7 17.8-30 39.5-6 0.8-11-3-36.2-19.4-73-38-2.1-2-4-4 12.4-25.2 30.5-46.5 9.1-10.3 18.5-20z"/>
	</g>
	<g id="Layer">
		<path id="Layer" fill-rule="evenodd" class="s10" d="m278.5 115.5q-18.5-2-37 0 1.1-1.2 3-1.5 8.5-0.3 17-0.5 9.1 0 17 2z"/>
	</g>
	<g id="Layer">
		<path id="Layer" fill-rule="evenodd" class="s11" d="m296.5 118.5q7.8 0.8 14 5-7.3-1.9-14-5z"/>
	</g>
	<g id="Layer">
		<path id="Layer" fill-rule="evenodd" class="s12" d="m240.5 155.5q105.2-1.5 211-1 0.4 1.9-1 3-104.5-3-210-2z"/>
	</g>
	<g id="Layer">
		<path id="Layer" fill-rule="evenodd" class="s13" d="m779.5 157.5q-52-2-105-2-53.1 0-106 1 105.5-3 212-2 0.4 1.9-1 3z"/>
	</g>
	<g id="Layer">
		<path id="Layer" fill-rule="evenodd" class="s14" d="m816.5 155.5q50.2-1.5 101-1 0.5 11.3-1 22 0-10.5 0-21-50 0-100 0z"/>
	</g>
	<g id="Layer">
		<path id="Layer" fill-rule="evenodd" class="s14" d="m1139.5 155.5q46.2-1.5 93-1 0.4 1.9-1 3-45.5-3-92-2z"/>
	</g>
	<g id="Layer">
		<path id="Layer" fill-rule="evenodd" class="s15" d="m240.5 155.5q105.5-1 210 2 0.1 4-2 7 0.1-4.1 1-8-104.5 0-209 0 0.4 3.6-2 6-0.1-4 2-7z"/>
	</g>
	<g id="Layer">
		<path id="Layer" fill-rule="evenodd" class="s16" d="m1088.5 167.5q-2.8-5-3-11-48.5 0-97 0 0.6 3.4-2 5 1-2.9 1-6 49.5-0.5 99 1 1.5 5.4 2 11z"/>
	</g>
	<g id="Layer">
		<path id="Layer" fill-rule="evenodd" class="s17" d="m1139.5 155.5q46.5-1 92 2 0 1-1 1-45-3-91-2-0.4 4.6 1 9-1.1 0.4-2.5 1-0.5 3.5-1 7-0.6 0.8-1.5 1 0.9-9.9 4-19z"/>
	</g>
	<g id="Layer">
		<path id="Layer" fill-rule="evenodd" class="s18" d="m1364.5 155.5q46.6-3.9 89 15.5 4.2 3.4 9 6 2.4 1.7 3 4.5-9.7 36.5-21 72.5-1.7 1.1-3-0.5-15.1-18.5-39-21.5-43.7-5.2-70.5 29.5-42.7 58.7-22 128 15.2 31.7 50.5 32 34.4-0.8 60.5-23 1.9 1.4 2.5 3.5-10.3 35.4-17.5 71.5-0.9 4.6-4.5 7.5-44.3 21.3-93 13-67.9-14.4-86.5-81.5-21.1-100 32-187 39.9-59.1 110.5-70z"/>
	</g>
	<g id="Layer">
		<path id="Layer" fill-rule="evenodd" class="s18" d="m1595.5 156.5q92-4.6 103.5 87 3.6 85.1-37 160-26 48-72.5 76.5-44.5 24.9-94 13-43.9-15.4-55.5-60.5-9.9-42.3-2-85 13.6-79.6 65-141 37.5-41.4 92.5-50z"/>
	</g>
	<g id="Layer">
		<path id="Layer" fill-rule="evenodd" class="s18" d="m2033.5 156.5q83.3-8.3 104.5 72 5.7 29.3 2 59-9.2 84.1-60 151-35.2 44.2-90.5 56.5-99.1 12.6-112.5-86.5-4.6-111.2 64-198 37-43.1 92.5-54z"/>
	</g>
	<g id="Layer">
		<path id="Layer" fill-rule="evenodd" class="s18" d="m2189.5 155.5q62.5-0.6 125 1.5 29.8 3.8 54 21 22 20.1 22 50-1.9 80.1-75 111.5 18.9 71.7 36 144-50 0-100 0-7.2-60.9-13-122-3.9-0.6-6.5 2-14.7 59.9-28.5 120-46.5 0-93 0 39-164.1 79-328z"/>
	</g>
	<g id="Layer">
		<path id="Layer" fill-rule="evenodd" class="s19" d="m555.5 161.5q-45.4-1-91-2 0.5-1.5 2-2 43.9 2 88 0-46-1.5-92-1 0.4 1.9-1 3 0-2 0-4 48-0.5 96 1-0.8 2.8-2 5z"/>
	</g>
	<g id="Layer">
		<path id="Layer" fill-rule="evenodd" class="s20" d="m779.5 157.5q-0.9 1.3-1 3-104 0.5-208-1 104.5-1 209-2z"/>
	</g>
	<g id="Layer">
		<path id="Layer" fill-rule="evenodd" class="s18" d="m1805.5 160.5q13-0.5 26 1 0.7 1.4 1 3-32.4 125.7-62 252 50.1 0.4 100-1.5 0.9 1.3 1 3-8.6 33.5-18.5 66.5-0.7 2.1-2.5 3.5-90.5 1-181 1-0.8-0.8-1-2 38.8-160.8 73.5-322.5 1.3-1.3 2.5-2.5 30.8-0.3 61-1.5z"/>
	</g>
	<g id="Layer">
		<path id="Layer" fill-rule="evenodd" class="s21" d="m448.5 164.5q-8.2 37.5-17 75-29.5 1.5-59 1-8.2 37.6-17 75-0.9 0.2-1.5 1-2.2 8.9-3.5 18-19 80.5-38 161-47.5 1-94-2 23.9-106 50-211 3.8-5.8 3-13 3-13.5 6-27 1.4-1.1 1-3-29 1-57-2 7.6-37.9 17-75 2.4-2.4 2-6 104.5 0 209 0-0.9 3.9-1 8z"/>
	</g>
	<g id="Layer">
		<path id="Layer" fill-rule="evenodd" class="s22" d="m555.5 161.5q-38.5 167.2-79 334-0.5 0-1 0 0-1.5 0-3-46-0.5-92 1 45.7 1 91 2-46.5 1-92-2 38.9-167.3 79-334 1.4-1.1 1-3 46-0.5 92 1-44.1 2-88 0-1.5 0.5-2 2 45.6 1 91 2z"/>
	</g>
	<g id="Layer">
		<path id="Layer" fill-rule="evenodd" class="s22" d="m779.5 157.5q-104.5 1-209 2 104 1.5 208 1-9.3 40-18 80-29.5 0-59 0-4.2 22.7-10 45-0.9 0.2-1.5 1-2.2 8.9-3.5 18-21.9 95.2-45 190-46.5 0.5-93-1 2.3-6.3 2-13 27.5-119.1 56-238 1.4-1.1 1-3-29 1-57-2 8.3-40.7 18-81 52.9-1 106-1 53 0 105 2z"/>
	</g>
	<g id="Layer">
		<path id="Layer" fill-rule="evenodd" class="s22" d="m816.5 155.5q50 0 100 0 0 10.5 0 21-1.1 16-1 32-3.4 67.7-3 136-1.1 30-1 60-1.2 3.7-1.5 8-0.8 26-0.5 52-0.3 10.5 0.5 21 0.9-2.5 1.5-5 37.3-159.5 75-319 2.6-1.6 2-5 48.5 0 97 0 0.2 6 3 11 9.9 55.7 21.5 111 11.9-52.4 25.5-104 0.9-0.2 1.5-1 0.5-3.5 1-7 1.4-0.6 2.5-1-1.4-4.4-1-9 46-1 91 2-38.6 167.5-80 334-46.2 3-93 2 0.4-2.4-1-4-2.2-16.3-4-33 0.3-6-0.5-12-0.6-0.8-1.5-1-3.9-32.9-7-66-0.4-14.8-3-29-1.4-5.7-2.5-12-3.5 12.8-6.5 26-0.9 0.2-1.5 1-2.5 10.5-4.5 21-11.7 50.4-23 101-3 3.1-3 8-90 0-180 0 2.3-22.4 2-45 0-1.5 0-3-27.5-0.3-55 0.5-9.9 23.8-20 47.5-44.5 1-88-2 78.5-169.1 158-337z"/>
	</g>
	<g id="Layer">
		<path id="Layer" fill-rule="evenodd" class="s23" d="m119.5 230.5q-3.3 11.1-3 23-15 0-30 0-34.5-1.2-69-2-0.4-8.6 1-17 4-12.4 4-26 3.4-19.5 10.5-38 1-1.3 2.5-2 44.9 17.5 90 35 0.5 0.8 1 1.5-5 12.4-7 25.5z"/>
	</g>
	<g id="Layer">
		<path id="Layer" fill-rule="evenodd" class="s24" d="m2265.5 224.5q41.2-1.5 31.5 39-6.1 29.6-34.5 39.5-7.5 0.8-15 0.5 8.3-39.6 18-79z"/>
	</g>
	<g id="Layer">
		<path id="Layer" fill-rule="evenodd" class="s25" d="m22.5 208.5q0 13.6-4 26 0.5-13.4 4-26z"/>
	</g>
	<g id="Layer">
		<path id="Layer" fill-rule="evenodd" class="s26" d="m1582.5 234.5q19.5-3.7 24.5 15 0 83.7-40 157-12.9 15.3-31.5 8.5-10.7-11.9-9-28 5.5-64.1 30.5-123.5 7.3-19.5 25.5-29z"/>
	</g>
	<g id="Layer">
		<path id="Layer" fill-rule="evenodd" class="s26" d="m2024.5 234.5q16.9-3.7 23.5 12 1.1 81.9-36 155-11.6 19.4-33.5 14.5-8.9-7-9.5-18.5 2-70.3 30-135 7-19.6 25.5-28z"/>
	</g>
	<g id="Layer">
		<path id="Layer" fill-rule="evenodd" class="s27" d="m221.5 237.5q28 3 57 2 0.4 1.9-1 3-28-3-57-2-0.4-1.9 1-3z"/>
	</g>
	<g id="Layer">
		<path id="Layer" fill-rule="evenodd" class="s27" d="m550.5 237.5q28 3 57 2 0.4 1.9-1 3-28-3-57-2-0.4-1.9 1-3z"/>
	</g>
	<g id="Layer">
		<path id="Layer" fill-rule="evenodd" class="s28" d="m915.5 208.5q-0.8 68.3-3 136-0.4-68.3 3-136z"/>
	</g>
	<g id="Layer">
		<path id="Layer" fill-rule="evenodd" class="s29" d="m119.5 230.5q-1.5 11.9-2 24-15.8 0.5-31-1 15 0 30 0-0.3-11.9 3-23z"/>
	</g>
	<g id="Layer">
		<path id="Layer" fill-rule="evenodd" class="s30" d="m108.5 266.5q4.5 0 9 0-0.3 9.7 2.5 19 4 16.3 9.5 32-44.8 19.3-89.5 39-5.7-10.5-10-22-3.5-12.5-7-25-3.3-17.4-4.5-35 45.2-3.7 90-8z"/>
	</g>
	<g id="Layer">
		<path id="Layer" fill-rule="evenodd" class="s31" d="m840.5 278.5q0.3-7-0.5-14-0.6 0.8-1.5 1 0.3-2.5 2.5-4 1.2 8.8-0.5 17z"/>
	</g>
	<g id="Layer">
		<path id="Layer" fill-rule="evenodd" class="s32" d="m271.5 269.5q0.8 7.2-3 13 1.3-6.7 3-13z"/>
	</g>
	<g id="Layer">
		<path id="Layer" fill-rule="evenodd" class="s33" d="m840.5 278.5q-4.2 47.9-7 96-20.6 2.9-42 2 23.1-55.7 47-111 0.9-0.2 1.5-1 0.8 7 0.5 14z"/>
	</g>
	<g id="Layer">
		<path id="Layer" fill-rule="evenodd" class="s34" d="m691.5 285.5q-1.8 9.8-5 19 1.3-9.1 3.5-18 0.6-0.8 1.5-1z"/>
	</g>
	<g id="Layer">
		<path id="Layer" fill-rule="evenodd" class="s35" d="m355.5 315.5q-1.8 9.8-5 19 1.3-9.1 3.5-18 0.6-0.8 1.5-1z"/>
	</g>
	<g id="Layer">
		<path id="Layer" fill-rule="evenodd" class="s36" d="m132.5 328.5q2.5-0.3 4.5 1 12.5 21.5 31.5 37.5-31.7 38-64 75.5-33.1-27-54-64 0.7-1.5 2-2.5 40.3-23.4 80-47.5z"/>
	</g>
	<g id="Layer">
		<path id="Layer" fill-rule="evenodd" class="s37" d="m1040.5 349.5q2.6 14.2 3 29-2.8-14.2-3-29z"/>
	</g>
	<g id="Layer">
		<path id="Layer" fill-rule="evenodd" class="s34" d="m1031.5 363.5q-2.1 11.4-6 22 2-10.5 4.5-21 0.6-0.8 1.5-1z"/>
	</g>
	<g id="Layer">
		<path id="Layer" fill-rule="evenodd" class="s38" d="m833.5 374.5q0 1.5 0 3-21.3 0.5-42-1 21.4 0.9 42-2z"/>
	</g>
	<g id="Layer">
		<path id="Layer" fill-rule="evenodd" class="s39" d="m177.5 374.5q22.4 14.2 48 22-13.2 46.7-24.5 94-0.8 0.8-2 1-41.2-10.5-75.5-35 27.7-40.6 54-82z"/>
	</g>
	<g id="Layer">
		<path id="Layer" fill-rule="evenodd" class="s40" d="m911.5 404.5q-1 30-1 60-0.5 0-1 0-0.3-26 0.5-52 0.3-4.3 1.5-8z"/>
	</g>
	<g id="Layer">
		<path id="Layer" fill-rule="evenodd" class="s41" d="m1050.5 444.5q0.9 0.2 1.5 1 0.8 6 0.5 12-1.4-6.2-2-13z"/>
	</g>
	<g id="Layer">
		<path id="Layer" fill-rule="evenodd" class="s42" d="m909.5 464.5q0.5 0 1 0-0.5 8.3 1 16-0.6 2.5-1.5 5-0.8-10.5-0.5-21z"/>
	</g>
	<g id="Layer">
		<path id="Layer" fill-rule="evenodd" class="s43" d="m475.5 495.5q-0.5 0-1 0-45.3-1-91-2 46-1.5 92-1 0 1.5 0 3z"/>
	</g>
	<g id="Layer">
		<path id="Layer" fill-rule="evenodd" class="s44" d="m550.5 480.5q0.3 6.7-2 13 46.5 1.5 93 1 0 0.5 0 1-47.5 1-94-2 0.4-6.9 3-13z"/>
	</g>
	<g id="Layer">
		<path id="Layer" fill-rule="evenodd" class="s45" d="m658.5 492.5q43.5 3 88 2 0 0.5 0 1-44.8 0.5-89-1-0.3-1.5 1-2z"/>
	</g>
	<g id="Layer">
		<path id="Layer" fill-rule="evenodd" class="s46" d="m821.5 449.5q0.3 22.6-2 45 90 0 180 0 0-4.9 3-8-1.4 4.4-2 9-91 0-182 0 0.6-23.3 3-46z"/>
	</g>
	<g id="Layer">
		<path id="Layer" fill-rule="evenodd" class="s47" d="m1056.5 490.5q1.4 1.6 1 4 46.8 1 93-2 0 1.5 0 3-47 0-94 0 0-2.5 0-5z"/>
	</g>
	<g id="Layer">
		<path id="Layer" fill-rule="evenodd" class="s48" d="m218.5 493.5q46.5 3 94 2-47.2 1.5-95 1-0.4-1.9 1-3z"/>
	</g>
	<g id="Layer">
		<path id="Layer" fill-rule="evenodd" class="s49" d="m382.5 493.5q45.5 3 92 2 0.5 0 1 0 0.5 0 1 0-47.2 1.5-95 1-0.4-1.9 1-3z"/>
	</g>
	<g id="Layer">
		<path id="Layer" fill-rule="evenodd" class="s48" d="m547.5 493.5q46.5 3 94 2-47.2 1.5-95 1-0.4-1.9 1-3z"/>
	</g>
	<g id="Layer">
		<path id="Layer" fill-rule="evenodd" class="s50" d="m657.5 494.5q44.2 1.5 89 1-44.8 2-90 0 0.2-0.9 1-1z"/>
	</g>
</svg>